<svg width="240" height="59" viewBox="0 0 240 59" fill="none" xmlns="http://www.w3.org/2000/svg">
<path d="M56.1289 44.2305C55.7096 45.7578 55.1556 47.36 54.4668 49.0371C53.8079 50.7142 52.9544 52.2565 51.9062 53.6641C50.8581 55.0716 49.6003 56.2396 48.1328 57.168C46.6654 58.0964 44.9434 58.5605 42.9668 58.5605C41.7389 58.5605 40.6458 58.321 39.6875 57.8418C38.7591 57.3926 37.9505 56.7786 37.2617 56C36.6029 55.2214 36.0938 54.3079 35.7344 53.2598C35.4049 52.2116 35.2402 51.1035 35.2402 49.9355V31.248C35.2402 30.5293 35.2253 29.8555 35.1953 29.2266C35.1654 28.5977 35.0905 28.0436 34.9707 27.5645C34.8509 27.0853 34.6712 26.7109 34.4316 26.4414C34.222 26.1419 33.9225 25.9922 33.5332 25.9922C32.9043 25.9922 32.1406 26.4414 31.2422 27.3398C30.3438 28.2383 29.4753 29.4062 28.6367 30.8438C27.7982 32.2812 27.0495 33.9134 26.3906 35.7402C25.7318 37.5371 25.3424 39.349 25.2227 41.1758V54.6074C25.2227 55.0566 25.2077 55.5208 25.1777 56C25.1777 56.4492 25.0879 56.8535 24.9082 57.2129C24.7585 57.6022 24.5039 57.9167 24.1445 58.1562C23.8151 58.4258 23.321 58.5605 22.6621 58.5605C22.2129 58.5605 21.7188 58.5007 21.1797 58.3809C20.6706 58.291 20.1914 58.0964 19.7422 57.7969C19.3229 57.5273 18.9635 57.123 18.6641 56.584C18.3945 56.0749 18.2598 55.3861 18.2598 54.5176V31.248C18.2598 30.5293 18.2298 29.8555 18.1699 29.2266C18.14 28.5977 18.0651 28.0436 17.9453 27.5645C17.8255 27.0853 17.6458 26.7109 17.4062 26.4414C17.1966 26.1419 16.8971 25.9922 16.5078 25.9922C15.8789 25.9922 15.1152 26.4414 14.2168 27.3398C13.3483 28.2383 12.4798 29.4062 11.6113 30.8438C10.7728 32.2812 10.0241 33.9134 9.36523 35.7402C8.73633 37.5371 8.34701 39.349 8.19727 41.1758V54.6074C8.19727 55.0566 8.18229 55.5208 8.15234 56C8.15234 56.4492 8.0625 56.8535 7.88281 57.2129C7.73307 57.6022 7.47852 57.9167 7.11914 58.1562C6.78971 58.4258 6.29557 58.5605 5.63672 58.5605C5.1875 58.5605 4.69336 58.5007 4.1543 58.3809C3.64518 58.291 3.16602 58.0964 2.7168 57.7969C2.29753 57.5273 1.93815 57.123 1.63867 56.584C1.36914 56.0749 1.23438 55.3861 1.23438 54.5176V25.3633C1.23438 24.4948 1.15951 23.8659 1.00977 23.4766C0.889974 23.0872 0.830078 22.7279 0.830078 22.3984C0.830078 21.9492 1.06966 21.5898 1.54883 21.3203C2.02799 21.0208 2.59701 20.8711 3.25586 20.8711C4.7832 20.8711 5.98112 21.2754 6.84961 22.084C7.74805 22.8626 8.19727 23.806 8.19727 24.9141V28.7773C8.79622 27.5195 9.4401 26.3516 10.1289 25.2734C10.8477 24.1953 11.6113 23.2669 12.4199 22.4883C13.2285 21.6797 14.082 21.0508 14.9805 20.6016C15.9089 20.1523 16.8971 19.9277 17.9453 19.9277C19.3229 19.9277 20.4609 20.1823 21.3594 20.6914C22.2878 21.2005 23.0215 21.8743 23.5605 22.7129C24.1296 23.5514 24.5339 24.4948 24.7734 25.543C25.013 26.5612 25.1628 27.5794 25.2227 28.5977C25.7917 27.3698 26.4206 26.2318 27.1094 25.1836C27.7982 24.1354 28.5469 23.222 29.3555 22.4434C30.1641 21.6647 31.0176 21.0508 31.916 20.6016C32.8444 20.1523 33.8327 19.9277 34.8809 19.9277C36.3783 19.9277 37.6061 20.2122 38.5645 20.7812C39.5228 21.3503 40.2715 22.084 40.8105 22.9824C41.3496 23.8809 41.724 24.8841 41.9336 25.9922C42.1432 27.1003 42.248 28.1784 42.248 29.2266V48.2734C42.248 48.4831 42.263 48.8275 42.293 49.3066C42.3229 49.7559 42.4128 50.2201 42.5625 50.6992C42.7122 51.1784 42.9368 51.5977 43.2363 51.957C43.5658 52.3164 44.0299 52.4961 44.6289 52.4961C45.5573 52.4961 46.3509 52.1667 47.0098 51.5078C47.6986 50.849 48.2826 50.0254 48.7617 49.0371C49.2708 48.0488 49.6901 46.9857 50.0195 45.8477C50.349 44.6797 50.6185 43.5866 50.8281 42.5684C51.0078 41.61 51.2923 40.9212 51.6816 40.502C52.1009 40.0527 52.5501 39.8281 53.0293 39.8281C53.3887 39.8281 53.748 39.9479 54.1074 40.1875C54.4967 40.3971 54.8411 40.6816 55.1406 41.041C55.4701 41.4004 55.7246 41.8047 55.9043 42.2539C56.1139 42.7031 56.2188 43.1523 56.2188 43.6016C56.2188 43.6615 56.2188 43.7363 56.2188 43.8262C56.2188 43.916 56.1888 44.0508 56.1289 44.2305ZM72.3457 29.2266C72.3457 30.9336 72.0462 32.6855 71.4473 34.4824C70.8783 36.2793 70.0098 37.9863 68.8418 39.6035C67.7038 41.1908 66.2812 42.6283 64.5742 43.916C62.8971 45.1738 60.9505 46.1322 58.7344 46.791C59.0339 47.5697 59.4232 48.3184 59.9023 49.0371C60.4115 49.7259 61.0104 50.3249 61.6992 50.834C62.388 51.3431 63.1816 51.7474 64.0801 52.0469C65.0085 52.3464 66.0716 52.4961 67.2695 52.4961C69.0664 52.4961 70.6087 52.1667 71.8965 51.5078C73.1842 50.819 74.2624 49.9206 75.1309 48.8125C76.0293 47.7044 76.748 46.4616 77.2871 45.084C77.8262 43.7064 78.2305 42.3138 78.5 40.9062C78.7096 39.888 79.1289 39.2142 79.7578 38.8848C80.4167 38.5254 81.0755 38.4355 81.7344 38.6152C82.4232 38.7949 83.0072 39.1842 83.4863 39.7832C83.9954 40.3522 84.2051 41.041 84.1152 41.8496C83.9954 42.778 83.7858 43.8411 83.4863 45.0391C83.2168 46.237 82.7975 47.4499 82.2285 48.6777C81.6595 49.9056 80.9258 51.1185 80.0273 52.3164C79.1589 53.4844 78.0807 54.5326 76.793 55.4609C75.5052 56.3893 73.9928 57.138 72.2559 57.707C70.5189 58.276 68.5273 58.5605 66.2812 58.5605C64.1849 58.5605 62.1484 58.1413 60.1719 57.3027C58.2253 56.4941 56.4883 55.3262 54.9609 53.7988C53.4635 52.2415 52.2507 50.3398 51.3223 48.0938C50.4238 45.8177 49.9746 43.2422 49.9746 40.3672C49.9746 37.4622 50.3789 34.7669 51.1875 32.2812C51.9961 29.7656 53.0592 27.5944 54.377 25.7676C55.6947 23.9408 57.1921 22.5182 58.8691 21.5C60.5462 20.4518 62.2682 19.9277 64.0352 19.9277C65.3229 19.9277 66.4759 20.1523 67.4941 20.6016C68.5423 21.0508 69.4258 21.6947 70.1445 22.5332C70.8633 23.3418 71.4023 24.3151 71.7617 25.4531C72.151 26.5911 72.3457 27.849 72.3457 29.2266ZM57.5215 40.0977C57.5215 40.3672 57.5365 40.6367 57.5664 40.9062C57.5964 41.1758 57.6113 41.4603 57.6113 41.7598C58.7493 41.2207 59.7826 40.5319 60.7109 39.6934C61.6393 38.8548 62.4329 37.8965 63.0918 36.8184C63.7507 35.7402 64.2598 34.5723 64.6191 33.3145C64.9785 32.0267 65.1582 30.694 65.1582 29.3164C65.1582 28.2982 64.9785 27.5046 64.6191 26.9355C64.2897 26.3665 63.8255 26.082 63.2266 26.082C62.4779 26.082 61.804 26.3366 61.2051 26.8457C60.6361 27.3548 60.127 28.0286 59.6777 28.8672C59.2585 29.6758 58.8991 30.6042 58.5996 31.6523C58.3301 32.6706 58.1055 33.7038 57.9258 34.752C57.7461 35.8001 57.6263 36.8034 57.5664 37.7617C57.5065 38.6901 57.4915 39.4688 57.5215 40.0977ZM133.395 44.2305C132.975 45.7578 132.421 47.36 131.732 49.0371C131.074 50.7142 130.22 52.2565 129.172 53.6641C128.124 55.0716 126.866 56.2396 125.398 57.168C123.931 58.0964 122.209 58.5605 120.232 58.5605C119.005 58.5605 117.911 58.321 116.953 57.8418C116.025 57.3926 115.216 56.7786 114.527 56C113.868 55.2214 113.359 54.3079 113 53.2598C112.671 52.2116 112.506 51.1035 112.506 49.9355V31.248C112.506 30.5293 112.491 29.8555 112.461 29.2266C112.431 28.5977 112.356 28.0436 112.236 27.5645C112.117 27.0853 111.937 26.7109 111.697 26.4414C111.488 26.1419 111.188 25.9922 110.799 25.9922C110.17 25.9922 109.406 26.4414 108.508 27.3398C107.609 28.2383 106.741 29.4062 105.902 30.8438C105.064 32.2812 104.315 33.9134 103.656 35.7402C102.997 37.5371 102.608 39.349 102.488 41.1758V54.6074C102.488 55.0566 102.473 55.5208 102.443 56C102.443 56.4492 102.354 56.8535 102.174 57.2129C102.024 57.6022 101.77 57.9167 101.41 58.1562C101.081 58.4258 100.587 58.5605 99.9277 58.5605C99.4785 58.5605 98.9844 58.5007 98.4453 58.3809C97.9362 58.291 97.457 58.0964 97.0078 57.7969C96.5885 57.5273 96.2292 57.123 95.9297 56.584C95.6602 56.0749 95.5254 55.3861 95.5254 54.5176V31.248C95.5254 30.5293 95.4954 29.8555 95.4355 29.2266C95.4056 28.5977 95.3307 28.0436 95.2109 27.5645C95.0911 27.0853 94.9115 26.7109 94.6719 26.4414C94.4622 26.1419 94.1628 25.9922 93.7734 25.9922C93.1445 25.9922 92.3809 26.4414 91.4824 27.3398C90.6139 28.2383 89.7454 29.4062 88.877 30.8438C88.0384 32.2812 87.2897 33.9134 86.6309 35.7402C86.002 37.5371 85.6126 39.349 85.4629 41.1758V54.6074C85.4629 55.0566 85.4479 55.5208 85.418 56C85.418 56.4492 85.3281 56.8535 85.1484 57.2129C84.9987 57.6022 84.7441 57.9167 84.3848 58.1562C84.0553 58.4258 83.5612 58.5605 82.9023 58.5605C82.4531 58.5605 81.959 58.5007 81.4199 58.3809C80.9108 58.291 80.4316 58.0964 79.9824 57.7969C79.5632 57.5273 79.2038 57.123 78.9043 56.584C78.6348 56.0749 78.5 55.3861 78.5 54.5176V25.3633C78.5 24.4948 78.4251 23.8659 78.2754 23.4766C78.1556 23.0872 78.0957 22.7279 78.0957 22.3984C78.0957 21.9492 78.3353 21.5898 78.8145 21.3203C79.2936 21.0208 79.8626 20.8711 80.5215 20.8711C82.0488 20.8711 83.2467 21.2754 84.1152 22.084C85.0137 22.8626 85.4629 23.806 85.4629 24.9141V28.7773C86.0618 27.5195 86.7057 26.3516 87.3945 25.2734C88.1133 24.1953 88.877 23.2669 89.6855 22.4883C90.4941 21.6797 91.3477 21.0508 92.2461 20.6016C93.1745 20.1523 94.1628 19.9277 95.2109 19.9277C96.5885 19.9277 97.7266 20.1823 98.625 20.6914C99.5534 21.2005 100.287 21.8743 100.826 22.7129C101.395 23.5514 101.799 24.4948 102.039 25.543C102.279 26.5612 102.428 27.5794 102.488 28.5977C103.057 27.3698 103.686 26.2318 104.375 25.1836C105.064 24.1354 105.812 23.222 106.621 22.4434C107.43 21.6647 108.283 21.0508 109.182 20.6016C110.11 20.1523 111.098 19.9277 112.146 19.9277C113.644 19.9277 114.872 20.2122 115.83 20.7812C116.788 21.3503 117.537 22.084 118.076 22.9824C118.615 23.8809 118.99 24.8841 119.199 25.9922C119.409 27.1003 119.514 28.1784 119.514 29.2266V48.2734C119.514 48.4831 119.529 48.8275 119.559 49.3066C119.589 49.7559 119.678 50.2201 119.828 50.6992C119.978 51.1784 120.202 51.5977 120.502 51.957C120.831 52.3164 121.296 52.4961 121.895 52.4961C122.823 52.4961 123.617 52.1667 124.275 51.5078C124.964 50.849 125.548 50.0254 126.027 49.0371C126.536 48.0488 126.956 46.9857 127.285 45.8477C127.615 44.6797 127.884 43.5866 128.094 42.5684C128.273 41.61 128.558 40.9212 128.947 40.502C129.367 40.0527 129.816 39.8281 130.295 39.8281C130.654 39.8281 131.014 39.9479 131.373 40.1875C131.762 40.3971 132.107 40.6816 132.406 41.041C132.736 41.4004 132.99 41.8047 133.17 42.2539C133.38 42.7031 133.484 43.1523 133.484 43.6016C133.484 43.6615 133.484 43.7363 133.484 43.8262C133.484 43.916 133.454 44.0508 133.395 44.2305ZM162.1 40.8164C162.16 40.457 162.354 40.1576 162.684 39.918C163.043 39.6784 163.447 39.5137 163.896 39.4238C164.346 39.334 164.81 39.334 165.289 39.4238C165.798 39.5137 166.232 39.7233 166.592 40.0527C166.981 40.3522 167.251 40.7865 167.4 41.3555C167.58 41.8945 167.565 42.5983 167.355 43.4668C167.086 44.7246 166.637 45.9076 166.008 47.0156C165.409 48.0938 164.645 49.0521 163.717 49.8906C162.788 50.7292 161.695 51.388 160.438 51.8672C159.18 52.3464 157.772 52.5859 156.215 52.5859C155.376 52.5859 154.583 52.541 153.834 52.4512C153.115 52.3613 152.411 52.1966 151.723 51.957C150.585 53.9336 149.117 55.5208 147.32 56.7188C145.523 57.9466 143.307 58.5605 140.672 58.5605C138.336 58.5605 136.329 58.0964 134.652 57.168C132.975 56.2695 131.583 55.0417 130.475 53.4844C129.367 51.8971 128.543 50.0703 128.004 48.0039C127.495 45.9375 127.24 43.7513 127.24 41.4453C127.24 38.0612 127.63 35.0365 128.408 32.3711C129.217 29.6758 130.145 27.3997 131.193 25.543C132.242 23.6562 133.275 22.2188 134.293 21.2305C135.341 20.2422 136.12 19.748 136.629 19.748C137.228 19.748 137.767 20.0176 138.246 20.5566C138.755 21.0658 139.115 21.6797 139.324 22.3984C139.564 23.0872 139.624 23.791 139.504 24.5098C139.414 25.2285 139.07 25.7826 138.471 26.1719C138.111 26.7409 137.677 27.3997 137.168 28.1484C136.689 28.8971 136.225 29.8405 135.775 30.9785C135.356 32.0866 134.997 33.4492 134.697 35.0664C134.398 36.6836 134.248 38.6302 134.248 40.9062C134.248 42.8529 134.413 44.5449 134.742 45.9824C135.102 47.4199 135.581 48.6328 136.18 49.6211C136.809 50.5794 137.512 51.2982 138.291 51.7773C139.1 52.2565 139.953 52.4961 140.852 52.4961C142.169 52.4961 143.247 52.1816 144.086 51.5527C144.954 50.8939 145.688 50.0404 146.287 48.9922C144.131 47.1354 142.484 44.7845 141.346 41.9395C140.238 39.0645 139.684 35.9648 139.684 32.6406C139.684 31.2031 139.833 29.8405 140.133 28.5527C140.462 27.235 140.926 26.082 141.525 25.0938C142.154 24.1055 142.933 23.3268 143.861 22.7578C144.79 22.1589 145.868 21.8594 147.096 21.8594C148.174 21.8594 149.192 22.2487 150.15 23.0273C151.109 23.806 151.947 24.8841 152.666 26.2617C153.385 27.6393 153.939 29.2715 154.328 31.1582C154.747 33.0449 154.957 35.0964 154.957 37.3125C154.957 39.0195 154.852 40.7116 154.643 42.3887C154.433 44.0658 154.104 45.6829 153.654 47.2402C153.984 47.36 154.283 47.4349 154.553 47.4648C154.852 47.4648 155.167 47.4648 155.496 47.4648C156.484 47.4648 157.353 47.2852 158.102 46.9258C158.88 46.5664 159.539 46.0872 160.078 45.4883C160.617 44.8893 161.051 44.1855 161.381 43.377C161.71 42.5684 161.95 41.7148 162.1 40.8164ZM144.535 32.2812C144.535 34.3477 144.85 36.3092 145.479 38.166C146.137 40.0228 146.991 41.64 148.039 43.0176C148.219 41.5501 148.309 40.1426 148.309 38.7949C148.309 37.2376 148.279 35.8001 148.219 34.4824C148.189 33.1348 148.084 31.9818 147.904 31.0234C147.755 30.0651 147.53 29.3164 147.23 28.7773C146.961 28.2083 146.587 27.9238 146.107 27.9238C145.059 27.9238 144.535 29.3763 144.535 32.2812ZM166.996 11.752C166.247 11.752 165.529 11.6022 164.84 11.3027C164.181 11.0033 163.597 10.599 163.088 10.0898C162.609 9.58073 162.219 8.99674 161.92 8.33789C161.62 7.64909 161.471 6.91536 161.471 6.13672C161.471 5.32812 161.62 4.57943 161.92 3.89062C162.219 3.20182 162.609 2.61784 163.088 2.13867C163.597 1.62956 164.181 1.24023 164.84 0.970703C165.529 0.671224 166.247 0.521484 166.996 0.521484C167.805 0.521484 168.553 0.671224 169.242 0.970703C169.931 1.24023 170.515 1.62956 170.994 2.13867C171.503 2.61784 171.893 3.20182 172.162 3.89062C172.462 4.57943 172.611 5.32812 172.611 6.13672C172.611 6.91536 172.462 7.64909 172.162 8.33789C171.893 8.99674 171.503 9.58073 170.994 10.0898C170.515 10.599 169.931 11.0033 169.242 11.3027C168.553 11.6022 167.805 11.752 166.996 11.752ZM169.107 48.2734C169.107 48.4831 169.122 48.8275 169.152 49.3066C169.182 49.7559 169.272 50.2201 169.422 50.6992C169.572 51.1784 169.811 51.5977 170.141 51.957C170.47 52.3164 170.934 52.4961 171.533 52.4961C172.432 52.4961 173.21 52.1667 173.869 51.5078C174.558 50.849 175.142 50.0254 175.621 49.0371C176.13 48.0488 176.549 46.9857 176.879 45.8477C177.208 44.6797 177.478 43.5866 177.688 42.5684C177.867 41.64 178.137 40.9661 178.496 40.5469C178.885 40.1276 179.29 39.903 179.709 39.873C180.158 39.8132 180.592 39.918 181.012 40.1875C181.461 40.457 181.85 40.8164 182.18 41.2656C182.539 41.6849 182.794 42.1641 182.943 42.7031C183.123 43.2422 183.153 43.7513 183.033 44.2305C182.614 45.7578 182.06 47.36 181.371 49.0371C180.712 50.7142 179.859 52.2565 178.811 53.6641C177.762 55.0716 176.505 56.2396 175.037 57.168C173.57 58.0964 171.848 58.5605 169.871 58.5605C168.643 58.5605 167.55 58.321 166.592 57.8418C165.633 57.3926 164.825 56.7786 164.166 56C163.507 55.2214 162.998 54.3079 162.639 53.2598C162.309 52.2116 162.145 51.1035 162.145 49.9355V25.3633C162.145 24.4948 162.07 23.8659 161.92 23.4766C161.8 23.0872 161.74 22.7279 161.74 22.3984C161.74 21.9492 161.98 21.5898 162.459 21.3203C162.938 21.0208 163.507 20.8711 164.166 20.8711C165.693 20.8711 166.891 21.2754 167.76 22.084C168.658 22.8626 169.107 23.806 169.107 24.9141V48.2734ZM198.082 58.5605C197.004 58.5605 195.896 58.3958 194.758 58.0664C193.65 57.737 192.632 57.168 191.703 56.3594C190.805 55.5508 190.056 54.4876 189.457 53.1699C188.888 51.8223 188.604 50.1302 188.604 48.0938C188.604 45.1289 188.993 41.9993 189.771 38.7051C190.58 35.3809 191.733 31.7272 193.23 27.7441H186.223H185.189C185.16 28.6426 185.1 29.7806 185.01 31.1582C184.95 32.5358 184.83 34.0033 184.65 35.5605C184.471 37.1178 184.231 38.6901 183.932 40.2773C183.662 41.8646 183.318 43.332 182.898 44.6797C182.599 45.638 182.12 46.1921 181.461 46.3418C180.832 46.4915 180.203 46.3867 179.574 46.0273C178.945 45.638 178.436 45.084 178.047 44.3652C177.658 43.6465 177.568 42.8978 177.777 42.1191C178.017 41.1908 178.227 40.0677 178.406 38.75C178.586 37.4023 178.721 35.9948 178.811 34.5273C178.93 33.0299 179.02 31.5475 179.08 30.0801C179.14 28.5827 179.185 27.25 179.215 26.082C178.077 25.4531 177.133 24.6595 176.385 23.7012C175.636 22.7129 175.262 21.5449 175.262 20.1973C175.262 19.5684 175.382 18.9993 175.621 18.4902C175.891 17.9512 176.235 17.502 176.654 17.1426C177.074 16.7533 177.568 16.4688 178.137 16.2891C178.706 16.0794 179.29 15.9746 179.889 15.9746C180.428 15.9746 180.982 16.0495 181.551 16.1992C182.15 16.349 182.704 16.6185 183.213 17.0078C183.752 17.3971 184.231 17.9062 184.65 18.5352C185.07 19.1641 185.414 19.9427 185.684 20.8711C186.432 20.9609 187.061 21.0358 187.57 21.0957C188.109 21.1257 188.559 21.1556 188.918 21.1855C189.277 21.2155 189.577 21.2305 189.816 21.2305C190.056 21.2305 190.296 21.2305 190.535 21.2305H195.342C195.611 21.2305 196.001 21.3952 196.51 21.7246C197.049 22.054 197.573 22.4883 198.082 23.0273C198.591 23.5365 199.01 24.0905 199.34 24.6895C199.699 25.2884 199.834 25.8574 199.744 26.3965C199.744 26.5762 199.639 27.0104 199.43 27.6992C199.22 28.388 198.965 29.2565 198.666 30.3047C198.367 31.3529 198.037 32.5658 197.678 33.9434C197.318 35.291 196.989 36.7135 196.689 38.2109C196.39 39.7083 196.135 41.2656 195.926 42.8828C195.716 44.4701 195.611 46.0273 195.611 47.5547C195.611 48.1836 195.686 48.7975 195.836 49.3965C195.986 49.9954 196.21 50.5345 196.51 51.0137C196.809 51.4629 197.184 51.8223 197.633 52.0918C198.112 52.3613 198.666 52.4961 199.295 52.4961C200.343 52.4961 201.242 52.1667 201.99 51.5078C202.739 50.849 203.368 50.0254 203.877 49.0371C204.386 48.0488 204.79 46.9857 205.09 45.8477C205.419 44.6797 205.689 43.5866 205.898 42.5684C206.078 41.61 206.378 40.9212 206.797 40.502C207.216 40.0527 207.65 39.8281 208.1 39.8281C208.459 39.8281 208.833 39.9479 209.223 40.1875C209.612 40.3971 209.956 40.6816 210.256 41.041C210.585 41.4004 210.84 41.8047 211.02 42.2539C211.229 42.7031 211.334 43.1523 211.334 43.6016C211.334 43.7513 211.319 43.8711 211.289 43.9609C211.259 44.0508 211.244 44.1406 211.244 44.2305C210.825 45.7578 210.271 47.36 209.582 49.0371C208.923 50.7142 208.07 52.2565 207.021 53.6641C205.973 55.0716 204.715 56.2396 203.248 57.168C201.781 58.0964 200.059 58.5605 198.082 58.5605ZM227.506 29.2266C227.506 30.9336 227.206 32.6855 226.607 34.4824C226.038 36.2793 225.17 37.9863 224.002 39.6035C222.864 41.1908 221.441 42.6283 219.734 43.916C218.057 45.1738 216.111 46.1322 213.895 46.791C214.194 47.5697 214.583 48.3184 215.062 49.0371C215.572 49.7259 216.171 50.3249 216.859 50.834C217.548 51.3431 218.342 51.7474 219.24 52.0469C220.169 52.3464 221.232 52.4961 222.43 52.4961C224.227 52.4961 225.769 52.1667 227.057 51.5078C228.344 50.819 229.423 49.9206 230.291 48.8125C231.189 47.7044 231.908 46.4616 232.447 45.084C232.986 43.7064 233.391 42.3138 233.66 40.9062C233.87 39.888 234.289 39.2142 234.918 38.8848C235.577 38.5254 236.236 38.4355 236.895 38.6152C237.583 38.7949 238.167 39.1842 238.646 39.7832C239.156 40.3522 239.365 41.041 239.275 41.8496C239.156 42.778 238.946 43.8411 238.646 45.0391C238.377 46.237 237.958 47.4499 237.389 48.6777C236.82 49.9056 236.086 51.1185 235.188 52.3164C234.319 53.4844 233.241 54.5326 231.953 55.4609C230.665 56.3893 229.153 57.138 227.416 57.707C225.679 58.276 223.688 58.5605 221.441 58.5605C219.345 58.5605 217.309 58.1413 215.332 57.3027C213.385 56.4941 211.648 55.3262 210.121 53.7988C208.624 52.2415 207.411 50.3398 206.482 48.0938C205.584 45.8177 205.135 43.2422 205.135 40.3672C205.135 37.4622 205.539 34.7669 206.348 32.2812C207.156 29.7656 208.219 27.5944 209.537 25.7676C210.855 23.9408 212.352 22.5182 214.029 21.5C215.706 20.4518 217.428 19.9277 219.195 19.9277C220.483 19.9277 221.636 20.1523 222.654 20.6016C223.702 21.0508 224.586 21.6947 225.305 22.5332C226.023 23.3418 226.562 24.3151 226.922 25.4531C227.311 26.5911 227.506 27.849 227.506 29.2266ZM212.682 40.0977C212.682 40.3672 212.697 40.6367 212.727 40.9062C212.757 41.1758 212.771 41.4603 212.771 41.7598C213.91 41.2207 214.943 40.5319 215.871 39.6934C216.799 38.8548 217.593 37.8965 218.252 36.8184C218.911 35.7402 219.42 34.5723 219.779 33.3145C220.139 32.0267 220.318 30.694 220.318 29.3164C220.318 28.2982 220.139 27.5046 219.779 26.9355C219.45 26.3665 218.986 26.082 218.387 26.082C217.638 26.082 216.964 26.3366 216.365 26.8457C215.796 27.3548 215.287 28.0286 214.838 28.8672C214.419 29.6758 214.059 30.6042 213.76 31.6523C213.49 32.6706 213.266 33.7038 213.086 34.752C212.906 35.8001 212.786 36.8034 212.727 37.7617C212.667 38.6901 212.652 39.4688 212.682 40.0977Z" fill="#E5E5E5"/>
</svg>
