<svg width="57" height="40" viewBox="0 0 57 40" fill="none" xmlns="http://www.w3.org/2000/svg">
<path d="M56.1289 25.2305C55.7096 26.7578 55.1556 28.36 54.4668 30.0371C53.8079 31.7142 52.9544 33.2565 51.9062 34.6641C50.8581 36.0716 49.6003 37.2396 48.1328 38.168C46.6654 39.0964 44.9434 39.5605 42.9668 39.5605C41.7389 39.5605 40.6458 39.321 39.6875 38.8418C38.7591 38.3926 37.9505 37.7786 37.2617 37C36.6029 36.2214 36.0938 35.3079 35.7344 34.2598C35.4049 33.2116 35.2402 32.1035 35.2402 30.9355V12.248C35.2402 11.5293 35.2253 10.8555 35.1953 10.2266C35.1654 9.59766 35.0905 9.04362 34.9707 8.56445C34.8509 8.08529 34.6712 7.71094 34.4316 7.44141C34.222 7.14193 33.9225 6.99219 33.5332 6.99219C32.9043 6.99219 32.1406 7.44141 31.2422 8.33984C30.3438 9.23828 29.4753 10.4062 28.6367 11.8438C27.7982 13.2812 27.0495 14.9134 26.3906 16.7402C25.7318 18.5371 25.3424 20.349 25.2227 22.1758V35.6074C25.2227 36.0566 25.2077 36.5208 25.1777 37C25.1777 37.4492 25.0879 37.8535 24.9082 38.2129C24.7585 38.6022 24.5039 38.9167 24.1445 39.1562C23.8151 39.4258 23.321 39.5605 22.6621 39.5605C22.2129 39.5605 21.7188 39.5007 21.1797 39.3809C20.6706 39.291 20.1914 39.0964 19.7422 38.7969C19.3229 38.5273 18.9635 38.123 18.6641 37.584C18.3945 37.0749 18.2598 36.3861 18.2598 35.5176V12.248C18.2598 11.5293 18.2298 10.8555 18.1699 10.2266C18.14 9.59766 18.0651 9.04362 17.9453 8.56445C17.8255 8.08529 17.6458 7.71094 17.4062 7.44141C17.1966 7.14193 16.8971 6.99219 16.5078 6.99219C15.8789 6.99219 15.1152 7.44141 14.2168 8.33984C13.3483 9.23828 12.4798 10.4062 11.6113 11.8438C10.7728 13.2812 10.0241 14.9134 9.36523 16.7402C8.73633 18.5371 8.34701 20.349 8.19727 22.1758V35.6074C8.19727 36.0566 8.18229 36.5208 8.15234 37C8.15234 37.4492 8.0625 37.8535 7.88281 38.2129C7.73307 38.6022 7.47852 38.9167 7.11914 39.1562C6.78971 39.4258 6.29557 39.5605 5.63672 39.5605C5.1875 39.5605 4.69336 39.5007 4.1543 39.3809C3.64518 39.291 3.16602 39.0964 2.7168 38.7969C2.29753 38.5273 1.93815 38.123 1.63867 37.584C1.36914 37.0749 1.23438 36.3861 1.23438 35.5176V6.36328C1.23438 5.49479 1.15951 4.86589 1.00977 4.47656C0.889974 4.08724 0.830078 3.72786 0.830078 3.39844C0.830078 2.94922 1.06966 2.58984 1.54883 2.32031C2.02799 2.02083 2.59701 1.87109 3.25586 1.87109C4.7832 1.87109 5.98112 2.27539 6.84961 3.08398C7.74805 3.86263 8.19727 4.80599 8.19727 5.91406V9.77734C8.79622 8.51953 9.4401 7.35156 10.1289 6.27344C10.8477 5.19531 11.6113 4.26693 12.4199 3.48828C13.2285 2.67969 14.082 2.05078 14.9805 1.60156C15.9089 1.15234 16.8971 0.927734 17.9453 0.927734C19.3229 0.927734 20.4609 1.18229 21.3594 1.69141C22.2878 2.20052 23.0215 2.87435 23.5605 3.71289C24.1296 4.55143 24.5339 5.49479 24.7734 6.54297C25.013 7.5612 25.1628 8.57943 25.2227 9.59766C25.7917 8.36979 26.4206 7.23177 27.1094 6.18359C27.7982 5.13542 28.5469 4.22201 29.3555 3.44336C30.1641 2.66471 31.0176 2.05078 31.916 1.60156C32.8444 1.15234 33.8327 0.927734 34.8809 0.927734C36.3783 0.927734 37.6061 1.21224 38.5645 1.78125C39.5228 2.35026 40.2715 3.08398 40.8105 3.98242C41.3496 4.88086 41.724 5.88411 41.9336 6.99219C42.1432 8.10026 42.248 9.17839 42.248 10.2266V29.2734C42.248 29.4831 42.263 29.8275 42.293 30.3066C42.3229 30.7559 42.4128 31.2201 42.5625 31.6992C42.7122 32.1784 42.9368 32.5977 43.2363 32.957C43.5658 33.3164 44.0299 33.4961 44.6289 33.4961C45.5573 33.4961 46.3509 33.1667 47.0098 32.5078C47.6986 31.849 48.2826 31.0254 48.7617 30.0371C49.2708 29.0488 49.6901 27.9857 50.0195 26.8477C50.349 25.6797 50.6185 24.5866 50.8281 23.5684C51.0078 22.61 51.2923 21.9212 51.6816 21.502C52.1009 21.0527 52.5501 20.8281 53.0293 20.8281C53.3887 20.8281 53.748 20.9479 54.1074 21.1875C54.4967 21.3971 54.8411 21.6816 55.1406 22.041C55.4701 22.4004 55.7246 22.8047 55.9043 23.2539C56.1139 23.7031 56.2188 24.1523 56.2188 24.6016C56.2188 24.6615 56.2188 24.7363 56.2188 24.8262C56.2188 24.916 56.1888 25.0508 56.1289 25.2305Z" fill="black"/>
</svg>
